<svg xmlns="http://www.w3.org/2000/svg" xmlns:xlink="http://www.w3.org/1999/xlink" width="500" zoomAndPan="magnify" viewBox="0 0 375 374.999991" height="500" preserveAspectRatio="xMidYMid meet" version="1.0"><defs><g/><clipPath id="51c386fc35"><path d="M 207 137 L 223 137 L 223 157 L 207 157 Z M 207 137 " clip-rule="nonzero"/></clipPath><clipPath id="57515a08af"><path d="M 137.710938 141.269531 L 230.761719 124.769531 L 237.570312 163.171875 L 144.519531 179.671875 Z M 137.710938 141.269531 " clip-rule="nonzero"/></clipPath><clipPath id="091ca1a280"><path d="M 137.710938 141.269531 L 230.761719 124.769531 L 237.570312 163.171875 L 144.519531 179.671875 Z M 137.710938 141.269531 " clip-rule="nonzero"/></clipPath><clipPath id="8951e55d5d"><path d="M 179 144 L 197 144 L 197 158 L 179 158 Z M 179 144 " clip-rule="nonzero"/></clipPath><clipPath id="185ca21a18"><path d="M 137.710938 141.269531 L 230.761719 124.769531 L 237.570312 163.171875 L 144.519531 179.671875 Z M 137.710938 141.269531 " clip-rule="nonzero"/></clipPath><clipPath id="6fd0ab5c09"><path d="M 137.710938 141.269531 L 230.761719 124.769531 L 237.570312 163.171875 L 144.519531 179.671875 Z M 137.710938 141.269531 " clip-rule="nonzero"/></clipPath><clipPath id="d4dd7b0900"><path d="M 143 147 L 170 147 L 170 179 L 143 179 Z M 143 147 " clip-rule="nonzero"/></clipPath><clipPath id="a18b5abcf4"><path d="M 137.710938 141.269531 L 230.761719 124.769531 L 237.570312 163.171875 L 144.519531 179.671875 Z M 137.710938 141.269531 " clip-rule="nonzero"/></clipPath><clipPath id="76ce0eb983"><path d="M 137.710938 141.269531 L 230.761719 124.769531 L 237.570312 163.171875 L 144.519531 179.671875 Z M 137.710938 141.269531 " clip-rule="nonzero"/></clipPath><clipPath id="835a1e3072"><path d="M 166 138 L 181 138 L 181 153 L 166 153 Z M 166 138 " clip-rule="nonzero"/></clipPath><clipPath id="7cac2ada08"><path d="M 137.710938 141.269531 L 230.761719 124.769531 L 237.570312 163.171875 L 144.519531 179.671875 Z M 137.710938 141.269531 " clip-rule="nonzero"/></clipPath><clipPath id="adfe7631fc"><path d="M 137.710938 141.269531 L 230.761719 124.769531 L 237.570312 163.171875 L 144.519531 179.671875 Z M 137.710938 141.269531 " clip-rule="nonzero"/></clipPath><clipPath id="6a2b281e08"><path d="M 195 150 L 210 150 L 210 165 L 195 165 Z M 195 150 " clip-rule="nonzero"/></clipPath><clipPath id="e86d06e595"><path d="M 137.710938 141.269531 L 230.761719 124.769531 L 237.570312 163.171875 L 144.519531 179.671875 Z M 137.710938 141.269531 " clip-rule="nonzero"/></clipPath><clipPath id="bb6ec3288d"><path d="M 137.710938 141.269531 L 230.761719 124.769531 L 237.570312 163.171875 L 144.519531 179.671875 Z M 137.710938 141.269531 " clip-rule="nonzero"/></clipPath><clipPath id="dd7a37c649"><path d="M 218 125 L 232 125 L 232 140 L 218 140 Z M 218 125 " clip-rule="nonzero"/></clipPath><clipPath id="6f5cd97f6b"><path d="M 137.710938 141.269531 L 230.761719 124.769531 L 237.570312 163.171875 L 144.519531 179.671875 Z M 137.710938 141.269531 " clip-rule="nonzero"/></clipPath><clipPath id="3dfca0a451"><path d="M 137.710938 141.269531 L 230.761719 124.769531 L 237.570312 163.171875 L 144.519531 179.671875 Z M 137.710938 141.269531 " clip-rule="nonzero"/></clipPath></defs><g clip-path="url(#51c386fc35)"><g clip-path="url(#57515a08af)"><g clip-path="url(#091ca1a280)"><path fill="#ffffff" d="M 220.289062 137.507812 C 216.164062 142.675781 211.664062 148.371094 207.539062 153.539062 C 207.542969 153.542969 207.542969 153.546875 207.546875 153.550781 C 207.609375 153.609375 207.671875 153.675781 207.726562 153.75 C 207.789062 153.824219 207.839844 153.898438 207.886719 153.976562 C 208.390625 154.710938 208.753906 155.535156 208.972656 156.394531 C 213.449219 150.789062 218.296875 144.65625 222.773438 139.050781 C 221.847656 138.707031 220.996094 138.183594 220.289062 137.507812 Z M 220.289062 137.507812 " fill-opacity="1" fill-rule="nonzero"/></g></g></g><g clip-path="url(#8951e55d5d)"><g clip-path="url(#185ca21a18)"><g clip-path="url(#6fd0ab5c09)"><path fill="#ffffff" d="M 180.316406 144.621094 C 180.429688 145.699219 180.28125 146.777344 179.914062 147.773438 C 185.050781 150.894531 190.71875 154.382812 195.855469 157.503906 C 195.914062 156.492188 196.1875 155.5 196.679688 154.609375 C 191.402344 151.402344 185.59375 147.828125 180.316406 144.621094 Z M 180.316406 144.621094 " fill-opacity="1" fill-rule="nonzero"/></g></g></g><g clip-path="url(#d4dd7b0900)"><g clip-path="url(#a18b5abcf4)"><g clip-path="url(#76ce0eb983)"><path fill="#ffffff" d="M 153.476562 165.25 C 152.207031 164.601562 150.71875 164.328125 149.113281 164.527344 C 145.207031 165.003906 143.035156 168.988281 143.472656 172.574219 C 143.949219 176.46875 147.941406 178.636719 151.535156 178.195312 C 155.28125 177.738281 157.429688 174.046875 157.207031 170.582031 C 157.21875 170.445312 157.210938 170.304688 157.175781 170.144531 C 157.15625 169.992188 157.113281 169.855469 157.0625 169.734375 C 156.769531 168.726562 156.316406 167.835938 155.722656 167.085938 C 160.117188 161.589844 164.691406 155.828125 169.082031 150.332031 C 168.332031 149.648438 167.734375 148.800781 167.367188 147.828125 C 162.796875 153.546875 158.042969 159.53125 153.476562 165.25 Z M 146.339844 172.066406 C 145.15625 166.992188 153.128906 165.605469 154.308594 170.652344 C 154.9375 175.824219 147.523438 177.140625 146.339844 172.066406 Z M 146.339844 172.066406 " fill-opacity="1" fill-rule="nonzero"/></g></g></g><g clip-path="url(#835a1e3072)"><g clip-path="url(#7cac2ada08)"><g clip-path="url(#adfe7631fc)"><path fill="#ffffff" d="M 180.320312 143.523438 C 180.304688 143.472656 180.285156 143.417969 180.265625 143.371094 C 180.25 143.296875 180.230469 143.226562 180.203125 143.152344 C 178.941406 139.828125 175.320312 137.972656 171.878906 138.882812 C 168.375 139.8125 166.320312 143.292969 166.839844 146.789062 C 166.910156 147.246094 167.027344 147.679688 167.179688 148.089844 C 167.550781 149.066406 168.148438 149.910156 168.898438 150.59375 C 170.558594 152.105469 172.953125 152.816406 175.230469 152.34375 C 177.605469 151.847656 179.394531 150.097656 180.179688 147.960938 C 180.546875 146.964844 180.695312 145.882812 180.582031 144.808594 C 180.539062 144.375 180.453125 143.945312 180.320312 143.523438 Z M 174.722656 149.480469 C 172.386719 150.113281 170.226562 148.53125 169.710938 146.28125 C 169.242188 144.257812 170.660156 142.421875 172.464844 141.71875 C 174.582031 140.898438 176.714844 142.359375 177.511719 144.253906 C 178.097656 146.488281 177.101562 148.835938 174.722656 149.480469 Z M 174.722656 149.480469 " fill-opacity="1" fill-rule="nonzero"/></g></g></g><g clip-path="url(#6a2b281e08)"><g clip-path="url(#e86d06e595)"><g clip-path="url(#bb6ec3288d)"><path fill="#ffffff" d="M 207.914062 153.484375 C 207.855469 153.410156 207.796875 153.34375 207.734375 153.285156 C 207.730469 153.28125 207.726562 153.277344 207.722656 153.273438 C 205.179688 150.492188 201.046875 150.183594 198.046875 152.511719 C 197.355469 153.050781 196.8125 153.703125 196.414062 154.421875 C 195.921875 155.3125 195.648438 156.308594 195.59375 157.320312 C 195.488281 159.128906 196.0625 160.996094 197.253906 162.417969 C 199.625 165.246094 203.75 165.390625 206.664062 163.398438 C 209.085938 161.746094 209.824219 158.777344 209.160156 156.128906 C 208.941406 155.269531 208.578125 154.445312 208.074219 153.710938 C 208.027344 153.636719 207.976562 153.558594 207.914062 153.484375 Z M 205.015625 161.003906 C 203.492188 162.3125 201.082031 162.109375 199.675781 160.75 C 198.042969 159.175781 198.089844 156.542969 199.675781 154.953125 C 201.414062 153.214844 204.179688 153.582031 205.691406 155.367188 C 207.035156 157.175781 206.695312 159.558594 205.015625 161.003906 Z M 205.015625 161.003906 " fill-opacity="1" fill-rule="nonzero"/></g></g></g><g clip-path="url(#dd7a37c649)"><g clip-path="url(#6f5cd97f6b)"><g clip-path="url(#3dfca0a451)"><path fill="#ffffff" d="M 231.8125 131.347656 C 231.074219 127.773438 227.554688 125.601562 224.050781 126.003906 C 223.972656 126.007812 223.894531 126.015625 223.808594 126.035156 C 223.726562 126.046875 223.652344 126.066406 223.578125 126.085938 C 220.011719 126.9375 217.789062 130.132812 218.125 133.773438 C 218.269531 135.371094 219.019531 136.742188 220.105469 137.773438 C 220.8125 138.445312 221.664062 138.972656 222.585938 139.316406 C 223.929688 139.816406 225.421875 139.9375 226.839844 139.5625 C 230.429688 138.609375 232.546875 134.925781 231.8125 131.347656 Z M 226.25 136.722656 C 223.785156 137.679688 221.339844 135.617188 220.992188 133.265625 C 220.679688 131.164062 222.347656 129.300781 224.316406 128.894531 C 226.394531 128.585938 228.394531 129.796875 228.941406 131.855469 C 229.507812 133.992188 228.21875 135.960938 226.25 136.722656 Z M 226.25 136.722656 " fill-opacity="1" fill-rule="nonzero"/></g></g></g><g fill="#ffffff" fill-opacity="1"><g transform="translate(84.200643, 214.043897)"><g><path d="M 17.648438 0.417969 C 38.128906 0.417969 38.128906 -30.261719 17.648438 -30.261719 C -2.832031 -30.261719 -2.832031 0.417969 17.648438 0.417969 Z M 17.648438 -5.746094 C 5.746094 -5.746094 5.746094 -24.140625 17.648438 -24.140625 C 29.554688 -24.140625 29.554688 -5.746094 17.648438 -5.746094 Z M 17.648438 -5.746094 "/></g></g></g><g fill="#ffffff" fill-opacity="1"><g transform="translate(119.450762, 214.043897)"><g><path d="M 12.445312 0.625 L 13.488281 0.625 L 18.898438 -12.695312 L 24.351562 0.5 L 25.433594 0.5 L 37.585938 -29.761719 L 30.886719 -29.761719 L 24.890625 -14.570312 L 19.0625 -29.46875 L 18.773438 -29.46875 L 12.945312 -14.570312 L 6.953125 -29.761719 L 0.25 -29.761719 Z M 12.445312 0.625 "/></g></g></g><g fill="#ffffff" fill-opacity="1"><g transform="translate(157.322793, 214.043897)"><g><path d="M 3.328125 -29.761719 L 3.328125 0 L 18.730469 0 L 18.730469 -5.953125 L 9.28125 -5.953125 L 9.28125 -29.761719 Z M 3.328125 -29.761719 "/></g></g></g><g fill="#ffffff" fill-opacity="1"><g transform="translate(177.840277, 214.043897)"><g><path d="M 1.957031 -1.914062 C 5.992188 0.167969 9.699219 0.375 11.363281 0.25 C 16.941406 -0.0429688 20.355469 -3.828125 20.355469 -8.78125 C 20.355469 -13.527344 16.359375 -16.191406 11.738281 -17.898438 C 10.03125 -18.480469 8.574219 -19.230469 8.40625 -20.894531 C 8.285156 -22.558594 9.242188 -24.101562 11.363281 -24.226562 C 12.277344 -24.265625 14.152344 -24.308594 17.441406 -22.976562 L 18.191406 -28.722656 C 14.359375 -30.054688 12.320312 -30.054688 10.78125 -29.96875 C 5.828125 -29.71875 2.371094 -25.890625 2.371094 -20.894531 C 2.371094 -15.902344 6.535156 -13.527344 11.195312 -11.820312 C 12.863281 -11.238281 14.152344 -10.488281 14.277344 -8.78125 C 14.445312 -7.160156 12.945312 -5.910156 11.195312 -5.785156 C 9.824219 -5.660156 6.117188 -5.746094 2.707031 -8.160156 Z M 1.957031 -1.914062 "/></g></g></g><g fill="#ffffff" fill-opacity="1"><g transform="translate(199.856001, 214.043897)"><g><path d="M 9.28125 0 L 9.28125 -29.761719 L 3.328125 -29.761719 L 3.328125 0 Z M 9.28125 0 "/></g></g></g><g fill="#ffffff" fill-opacity="1"><g transform="translate(212.507761, 214.043897)"><g><path d="M 24.808594 -1.832031 L 24.808594 -14.902344 L 18.773438 -14.902344 L 18.773438 -5.953125 C 18.230469 -5.867188 17.648438 -5.785156 17.109375 -5.785156 C 5.621094 -5.785156 5.078125 -23.558594 17.109375 -23.976562 C 20.269531 -24.058594 22.1875 -23.394531 23.351562 -22.894531 L 24.058594 -28.929688 C 23.519531 -29.09375 20.644531 -30.136719 17.109375 -30.011719 C -3.539062 -29.261719 -2.539062 0.167969 17.109375 0.167969 C 19.9375 0.167969 22.519531 -0.542969 24.808594 -1.832031 Z M 24.808594 -1.832031 "/></g></g></g><g fill="#ffffff" fill-opacity="1"><g transform="translate(240.516418, 214.043897)"><g><path d="M 24.140625 0 L 24.140625 -29.761719 L 18.191406 -29.761719 L 18.191406 -17.855469 L 9.28125 -17.855469 L 9.28125 -29.761719 L 3.328125 -29.761719 L 3.328125 0 L 9.28125 0 L 9.28125 -11.90625 L 18.191406 -11.90625 L 18.191406 0 Z M 24.140625 0 "/></g></g></g><g fill="#ffffff" fill-opacity="1"><g transform="translate(268.025664, 214.043897)"><g><path d="M 14.195312 0 L 14.195312 -23.808594 L 21.601562 -23.808594 L 21.601562 -29.71875 L 0.832031 -29.71875 L 0.832031 -23.808594 L 8.242188 -23.808594 L 8.242188 0 Z M 14.195312 0 "/></g></g></g><g fill="#ffffff" fill-opacity="1"><g transform="translate(153.778895, 241.863793)"><g><path d="M 10.34375 -0.53125 C 10.4375 -0.519531 10.503906 -0.492188 10.546875 -0.453125 C 10.585938 -0.421875 10.609375 -0.363281 10.609375 -0.28125 L 10.609375 0 L 7.9375 0 L 7.9375 -0.28125 C 7.9375 -0.363281 7.957031 -0.421875 8 -0.453125 C 8.039062 -0.492188 8.109375 -0.519531 8.203125 -0.53125 L 8.859375 -0.546875 L 7.8125 -3.25 L 3.03125 -3.25 L 1.96875 -0.5625 L 2.671875 -0.53125 C 2.765625 -0.519531 2.832031 -0.492188 2.875 -0.453125 C 2.914062 -0.421875 2.9375 -0.363281 2.9375 -0.28125 L 2.9375 0 L 0.265625 0 L 0.265625 -0.28125 C 0.265625 -0.363281 0.285156 -0.421875 0.328125 -0.453125 C 0.367188 -0.492188 0.4375 -0.519531 0.53125 -0.53125 L 1.203125 -0.5625 L 5.046875 -9.90625 L 5.796875 -9.90625 L 9.625 -0.5625 Z M 7.59375 -3.78125 L 5.640625 -8.59375 L 5.421875 -9.21875 L 5.1875 -8.59375 L 3.25 -3.78125 Z M 7.59375 -3.78125 "/></g></g></g><g fill="#ffffff" fill-opacity="1"><g transform="translate(165.966877, 241.863793)"><g><path d="M 7.9375 -0.53125 C 8.125 -0.507812 8.21875 -0.425781 8.21875 -0.28125 L 8.21875 0 L 6.53125 0 L 6.53125 -4.453125 C 6.53125 -5.109375 6.378906 -5.617188 6.078125 -5.984375 C 5.785156 -6.347656 5.332031 -6.53125 4.71875 -6.53125 C 3.832031 -6.53125 3.054688 -6.09375 2.390625 -5.21875 L 2.390625 -0.5625 L 3.140625 -0.53125 C 3.316406 -0.519531 3.40625 -0.4375 3.40625 -0.28125 L 3.40625 0 L 0.734375 0 L 0.734375 -0.28125 C 0.734375 -0.4375 0.820312 -0.519531 1 -0.53125 L 1.734375 -0.5625 L 1.734375 -6.421875 L 0.984375 -6.453125 C 0.890625 -6.460938 0.820312 -6.484375 0.78125 -6.515625 C 0.738281 -6.554688 0.71875 -6.617188 0.71875 -6.703125 L 0.71875 -6.96875 L 2.09375 -6.96875 C 2.226562 -6.96875 2.300781 -6.910156 2.3125 -6.796875 L 2.359375 -5.734375 C 3.066406 -6.617188 3.910156 -7.0625 4.890625 -7.0625 C 5.640625 -7.0625 6.210938 -6.828125 6.609375 -6.359375 C 7.003906 -5.898438 7.203125 -5.265625 7.203125 -4.453125 L 7.203125 -0.5625 Z M 7.9375 -0.53125 "/></g></g></g><g fill="#ffffff" fill-opacity="1"><g transform="translate(176.167969, 241.863793)"><g><path d="M 6.296875 -0.53125 C 6.484375 -0.507812 6.578125 -0.425781 6.578125 -0.28125 L 6.578125 0 L 5.390625 0 C 5.242188 0 5.15625 -0.0664062 5.125 -0.203125 L 5.03125 -1.09375 C 4.5625 -0.65625 4.140625 -0.34375 3.765625 -0.15625 C 3.398438 0.0195312 2.953125 0.109375 2.421875 0.109375 C 1.859375 0.109375 1.40625 -0.0507812 1.0625 -0.375 C 0.726562 -0.695312 0.5625 -1.132812 0.5625 -1.6875 C 0.5625 -2.4375 1.007812 -2.972656 1.90625 -3.296875 C 2.800781 -3.628906 3.832031 -3.800781 5 -3.8125 L 5 -4.53125 C 5 -5.1875 4.859375 -5.679688 4.578125 -6.015625 C 4.304688 -6.359375 3.894531 -6.53125 3.34375 -6.53125 C 3.007812 -6.53125 2.671875 -6.457031 2.328125 -6.3125 C 1.984375 -6.175781 1.707031 -6.003906 1.5 -5.796875 C 1.394531 -5.691406 1.296875 -5.640625 1.203125 -5.640625 C 1.128906 -5.640625 1.066406 -5.679688 1.015625 -5.765625 L 0.90625 -5.984375 C 1.28125 -6.347656 1.671875 -6.617188 2.078125 -6.796875 C 2.484375 -6.984375 2.929688 -7.078125 3.421875 -7.078125 C 4.148438 -7.078125 4.703125 -6.847656 5.078125 -6.390625 C 5.460938 -5.929688 5.65625 -5.3125 5.65625 -4.53125 L 5.65625 -0.546875 Z M 5 -3.359375 C 3.988281 -3.347656 3.101562 -3.21875 2.34375 -2.96875 C 1.582031 -2.726562 1.203125 -2.304688 1.203125 -1.703125 C 1.203125 -1.285156 1.328125 -0.957031 1.578125 -0.71875 C 1.828125 -0.488281 2.164062 -0.375 2.59375 -0.375 C 3.101562 -0.375 3.523438 -0.460938 3.859375 -0.640625 C 4.203125 -0.828125 4.582031 -1.128906 5 -1.546875 Z M 5 -3.359375 "/></g></g></g><g fill="#ffffff" fill-opacity="1"><g transform="translate(184.745968, 241.863793)"><g><path d="M 3.09375 -0.53125 C 3.28125 -0.507812 3.375 -0.425781 3.375 -0.28125 L 3.375 0 L 0.6875 0 L 0.6875 -0.28125 C 0.6875 -0.425781 0.78125 -0.507812 0.96875 -0.53125 L 1.6875 -0.5625 L 1.6875 -9.625 L 0.96875 -9.65625 C 0.78125 -9.675781 0.6875 -9.757812 0.6875 -9.90625 L 0.6875 -10.1875 L 2.359375 -10.1875 L 2.359375 -0.5625 Z M 3.09375 -0.53125 "/></g></g></g><g fill="#ffffff" fill-opacity="1"><g transform="translate(190.049789, 241.863793)"><g><path d="M 7.734375 -6.703125 C 7.734375 -6.554688 7.640625 -6.472656 7.453125 -6.453125 L 6.96875 -6.4375 L 3.203125 2.234375 C 3.140625 2.390625 3.035156 2.46875 2.890625 2.46875 L 2.421875 2.46875 L 3.65625 -0.25 L 0.9375 -6.4375 L 0.515625 -6.453125 C 0.328125 -6.472656 0.234375 -6.554688 0.234375 -6.703125 L 0.234375 -6.96875 L 2.671875 -6.96875 L 2.671875 -6.703125 C 2.671875 -6.554688 2.578125 -6.472656 2.390625 -6.453125 L 1.6875 -6.421875 L 3.84375 -1.375 C 3.90625 -1.25 3.953125 -1.109375 3.984375 -0.953125 C 4.015625 -1.066406 4.066406 -1.207031 4.140625 -1.375 L 6.28125 -6.421875 L 5.578125 -6.453125 C 5.390625 -6.472656 5.296875 -6.554688 5.296875 -6.703125 L 5.296875 -6.96875 L 7.734375 -6.96875 Z M 7.734375 -6.703125 "/></g></g></g><g fill="#ffffff" fill-opacity="1"><g transform="translate(199.537272, 241.863793)"><g><path d="M 2.90625 0.109375 C 2.414062 0.109375 2.039062 -0.0234375 1.78125 -0.296875 C 1.53125 -0.578125 1.40625 -0.972656 1.40625 -1.484375 L 1.40625 -6.25 L 0.421875 -6.25 C 0.367188 -6.25 0.320312 -6.257812 0.28125 -6.28125 C 0.25 -6.3125 0.234375 -6.351562 0.234375 -6.40625 L 0.234375 -6.65625 L 1.421875 -6.75 L 1.59375 -9.234375 C 1.59375 -9.273438 1.609375 -9.3125 1.640625 -9.34375 C 1.671875 -9.382812 1.710938 -9.40625 1.765625 -9.40625 L 2.09375 -9.40625 L 2.09375 -6.75 L 4.28125 -6.75 L 4.28125 -6.25 L 2.09375 -6.25 L 2.09375 -1.53125 C 2.09375 -1.1875 2.175781 -0.914062 2.34375 -0.71875 C 2.519531 -0.53125 2.753906 -0.4375 3.046875 -0.4375 C 3.328125 -0.4375 3.644531 -0.566406 4 -0.828125 C 4.0625 -0.859375 4.101562 -0.875 4.125 -0.875 C 4.195312 -0.875 4.25 -0.84375 4.28125 -0.78125 L 4.4375 -0.53125 C 4.257812 -0.332031 4.023438 -0.175781 3.734375 -0.0625 C 3.453125 0.0507812 3.175781 0.109375 2.90625 0.109375 Z M 2.90625 0.109375 "/></g></g></g><g fill="#ffffff" fill-opacity="1"><g transform="translate(205.904504, 241.863793)"><g><path d="M 2.046875 -8.75 C 1.867188 -8.75 1.71875 -8.804688 1.59375 -8.921875 C 1.476562 -9.046875 1.421875 -9.195312 1.421875 -9.375 C 1.421875 -9.539062 1.476562 -9.679688 1.59375 -9.796875 C 1.71875 -9.921875 1.867188 -9.984375 2.046875 -9.984375 C 2.210938 -9.984375 2.351562 -9.921875 2.46875 -9.796875 C 2.582031 -9.679688 2.640625 -9.539062 2.640625 -9.375 C 2.640625 -9.195312 2.582031 -9.046875 2.46875 -8.921875 C 2.351562 -8.804688 2.210938 -8.75 2.046875 -8.75 Z M 3.109375 -0.53125 C 3.296875 -0.507812 3.390625 -0.425781 3.390625 -0.28125 L 3.390625 0 L 0.703125 0 L 0.703125 -0.28125 C 0.703125 -0.425781 0.796875 -0.507812 0.984375 -0.53125 L 1.703125 -0.5625 L 1.703125 -6.40625 L 0.984375 -6.4375 C 0.796875 -6.457031 0.703125 -6.539062 0.703125 -6.6875 L 0.703125 -6.96875 L 2.375 -6.96875 L 2.375 -0.5625 Z M 3.109375 -0.53125 "/></g></g></g><g fill="#ffffff" fill-opacity="1"><g transform="translate(211.250302, 241.863793)"><g><path d="M 5.90625 -0.890625 C 5.644531 -0.566406 5.296875 -0.320312 4.859375 -0.15625 C 4.429688 0.0078125 3.988281 0.09375 3.53125 0.09375 C 2.914062 0.09375 2.378906 -0.0625 1.921875 -0.375 C 1.472656 -0.6875 1.128906 -1.113281 0.890625 -1.65625 C 0.648438 -2.195312 0.53125 -2.804688 0.53125 -3.484375 C 0.53125 -4.179688 0.648438 -4.800781 0.890625 -5.34375 C 1.140625 -5.882812 1.5 -6.304688 1.96875 -6.609375 C 2.445312 -6.910156 3.019531 -7.0625 3.6875 -7.0625 C 4.269531 -7.0625 4.921875 -6.921875 5.640625 -6.640625 L 5.640625 -4.890625 L 5.3125 -4.890625 C 5.125 -4.890625 5.019531 -5 5 -5.21875 C 5 -5.25 4.988281 -5.359375 4.96875 -5.546875 C 4.945312 -5.742188 4.925781 -6 4.90625 -6.3125 C 4.457031 -6.46875 4.0625 -6.546875 3.71875 -6.546875 C 2.90625 -6.546875 2.285156 -6.265625 1.859375 -5.703125 C 1.429688 -5.148438 1.21875 -4.410156 1.21875 -3.484375 C 1.21875 -2.566406 1.425781 -1.828125 1.84375 -1.265625 C 2.269531 -0.710938 2.863281 -0.4375 3.625 -0.4375 C 3.957031 -0.4375 4.285156 -0.492188 4.609375 -0.609375 C 4.941406 -0.734375 5.203125 -0.890625 5.390625 -1.078125 C 5.460938 -1.148438 5.53125 -1.1875 5.59375 -1.1875 C 5.65625 -1.1875 5.695312 -1.164062 5.71875 -1.125 Z M 5.90625 -0.890625 "/></g></g></g><g fill="#ffffff" fill-opacity="1"><g transform="translate(219.072716, 241.863793)"><g><path d="M 5.4375 -2.046875 C 5.4375 -1.390625 5.203125 -0.863281 4.734375 -0.46875 C 4.273438 -0.0820312 3.691406 0.109375 2.984375 0.109375 C 2.304688 0.109375 1.617188 -0.0195312 0.921875 -0.28125 L 0.921875 -1.96875 L 1.265625 -1.96875 C 1.453125 -1.96875 1.550781 -1.859375 1.5625 -1.640625 L 1.65625 -0.609375 C 2.019531 -0.453125 2.472656 -0.375 3.015625 -0.375 C 3.523438 -0.375 3.945312 -0.515625 4.28125 -0.796875 C 4.625 -1.078125 4.796875 -1.457031 4.796875 -1.9375 C 4.796875 -2.3125 4.640625 -2.597656 4.328125 -2.796875 C 4.015625 -3.003906 3.523438 -3.207031 2.859375 -3.40625 C 2.222656 -3.582031 1.738281 -3.800781 1.40625 -4.0625 C 1.082031 -4.332031 0.921875 -4.707031 0.921875 -5.1875 C 0.921875 -5.5625 1.023438 -5.890625 1.234375 -6.171875 C 1.441406 -6.460938 1.722656 -6.679688 2.078125 -6.828125 C 2.429688 -6.984375 2.8125 -7.0625 3.21875 -7.0625 C 3.75 -7.0625 4.363281 -6.941406 5.0625 -6.703125 L 5.0625 -5.046875 L 4.734375 -5.046875 C 4.546875 -5.046875 4.441406 -5.15625 4.421875 -5.375 L 4.34375 -6.390625 C 3.976562 -6.503906 3.609375 -6.5625 3.234375 -6.5625 C 2.773438 -6.5625 2.378906 -6.441406 2.046875 -6.203125 C 1.710938 -5.960938 1.546875 -5.640625 1.546875 -5.234375 C 1.546875 -4.984375 1.625 -4.773438 1.78125 -4.609375 C 1.945312 -4.441406 2.15625 -4.300781 2.40625 -4.1875 C 2.664062 -4.082031 3.023438 -3.96875 3.484375 -3.84375 C 4.097656 -3.65625 4.578125 -3.425781 4.921875 -3.15625 C 5.265625 -2.882812 5.4375 -2.515625 5.4375 -2.046875 Z M 5.4375 -2.046875 "/></g></g></g></svg>